#!OML:ASF H:\Not Pregnant\Project 1\Capture day 1\Session 1\non-pregnant.ASF
:FULLY-SPECIFIED
:DEGREES
1282
root -5.92519 15.9383 33.5094 144.755 -78.2866 -134.382
lowerback -10.8257 2.65956 6.94719
upperback -4.25723 2.57076 1.48778
thorax 1.84846 1.15071 -2.03545
lowerneck 17.8716 -7.25877 -29.2018
upperneck -4.23438 -19.2681 47.3671
head 4.93255 -13.374 26.7226
rclavicle -1.45361e-014 -2.0276e-014
rhumerus -34.0649 14.0717 -96.3978
rradius 25.9238
rwrist 20.968
rhand -8.10109 3.69118
rfingers 7.12502
rthumb 17.8116 -25.5131
lclavicle -1.45361e-014 -2.0276e-014
lhumerus -40.202 -14.8948 96.0291
lradius 32.4214
lwrist 40.2666
lhand -8.87568 -16.2276
lfingers 7.12502
lthumb 17.0661 13.0428
rfemur -10.8676 -4.78446 31.9161
rtibia 18.7334
rfoot -19.1322 11.5119
rtoes -10.5474
lfemur -17.1007 -2.25403 -4.91883
ltibia 29.0342
lfoot -19.7396 4.22962
ltoes -31.3047
1283
root -5.92182 15.9351 33.4947 144.212 -78.333 -133.851
lowerback -10.8492 2.67333 6.98468
upperback -4.2783 2.58235 1.4961
thorax 1.84124 1.15493 -2.04572
lowerneck 17.7999 -7.24307 -29.1897
upperneck -4.15883 -19.2411 47.3588
head 4.95158 -13.3507 26.7173
rclavicle -1.52816e-015 -2.78299e-015
rhumerus -34.0887 14.0163 -96.3822
rradius 25.9161
rwrist 21.0104
rhand -8.0957 3.69694
rfingers 7.12502
rthumb 17.8168 -25.5069
lclavicle -1.52816e-015 -2.78299e-015
lhumerus -40.2075 -14.7013 95.908
lradius 32.4308
lwrist 40.4574
lhand -8.5721 -16.2057
lfingers 7.12502
lthumb 17.3583 13.0392
rfemur -10.883 -4.93952 32.0318
rtibia 18.781
rfoot -19.1651 11.5833
rtoes -10.4659
lfemur -17.1479 -2.33489 -4.79799
ltibia 29.0985
lfoot -19.7822 4.23737
ltoes -31.2312
1284
root -5.9185 15.9318 33.4803 143.647 -78.3772 -133.296
lowerback -10.8728 2.68438 7.02933
upperback -4.29976 2.58947 1.50544
thorax 1.83355 1.15681 -2.05949
lowerneck 17.7379 -7.22909 -29.1762
upperneck -4.0975 -19.2122 47.3481
head 4.96234 -13.3264 26.7081
rclavicle 2.69602e-015 1.51076e-014
rhumerus -34.1189 14.005 -96.382
rradius 25.921
rwrist 21.0182
rhand -8.09207 3.69057
rfingers 7.12502
rthumb 17.8203 -25.5129
lclavicle 2.69602e-015 1.51076e-014
lhumerus -40.2246 -14.5197 95.7999
lradius 32.4292
lwrist 40.5538
lhand -8.35418 -16.2218
lfingers 7.12502
lthumb 17.568 13.0045
rfemur -10.898 -5.10994 32.1499
rtibia 18.8244
rfoot -19.1949 11.6736
rtoes -10.3561
lfemur -17.1968 -2.41963 -4.67411
ltibia 29.1633
lfoot -19.8226 4.25355
ltoes -31.1801
1285
root -5.9152 15.9285 33.4664 143.056 -78.4191 -132.713
lowerback -10.8956 2.69475 7.08189
upperback -4.32342 2.59478 1.51704
thorax 1.82318 1.15752 -2.07563
lowerneck 17.686 -7.21786 -29.1648
upperneck -4.04867 -19.1847 47.3349
head 4.96756 -13.3029 26.6953
rclavicle 3.56818e-014 2.32578e-014
rhumerus -34.16 14.0343 -96.3891
rradius 25.9391
rwrist 20.9911
rhand -8.08694 3.67938
rfingers 7.12502
rthumb 17.8252 -25.5237
lclavicle 3.56818e-014 2.32578e-014
lhumerus -40.2482 -14.3373 95.6999
lradius 32.4135
lwrist 40.5935
lhand -8.17589 -16.2774
lfingers 7.12502
lthumb 17.7396 12.9335
rfemur -10.9153 -5.30683 32.2711
rtibia 18.8637
rfoot -19.2256 11.7942
rtoes -10.2163
lfemur -17.2498 -2.50806 -4.54687
ltibia 29.2297
lfoot -19.859 4.27977
ltoes -31.1663
1286
root -5.91208 15.9254 33.4526 142.451 -78.4602 -132.119
lowerback -10.9164 2.70656 7.13535
upperback -4.34841 2.60221 1.52646
thorax 1.81058 1.15916 -2.09435
lowerneck 17.6477 -7.2103 -29.1454
upperneck -4.01633 -19.1578 47.3217
head 4.96382 -13.2802 26.678
rclavicle 3.03147e-015 -1.43125e-014
rhumerus -34.1973 14.0318 -96.3847
rradius 25.9521
rwrist 20.9865
rhand -8.0834 3.67237
rfingers 7.12502
rthumb 17.8286 -25.5304
lclavicle 3.03147e-015 -1.43125e-014
lhumerus -40.2787 -14.1635 95.6029
lradius 32.3947
lwrist 40.6074
lhand -8.02428 -16.3368
lfingers 7.12502
lthumb 17.8855 12.8607
rfemur -10.928 -5.50536 32.3913
rtibia 18.8982
rfoot -19.25 11.9189
rtoes -10.0497
lfemur -17.3023 -2.60219 -4.41963
ltibia 29.2983
lfoot -19.8957 4.30609
ltoes -31.1438
